<svg width="100" height="100" viewBox="0 0 100 100" fill="none" xmlns="http://www.w3.org/2000/svg">
<rect width="100" height="100" fill="#2787F5"/>
<path d="M63.587 49.9995C63.587 42.5076 57.4919 36.4125 50 36.4125C42.5082 36.4125 36.413 42.5076 36.413 49.9995C36.413 57.4915 42.5082 63.5864 50 63.5864C57.4919 63.5864 63.587 57.4913 63.587 49.9995ZM38.8834 49.9995C38.8834 43.8698 43.8703 38.8829 50 38.8829C56.1297 38.8829 61.1166 43.8698 61.1166 49.9995C61.1166 56.1292 56.1297 61.1161 50 61.1161C43.8703 61.1161 38.8834 56.1292 38.8834 49.9995Z" fill="white"/>
<path d="M51.2352 43.8236C51.2352 43.1414 50.6821 42.5884 50 42.5884C45.9135 42.5884 42.5889 45.913 42.5889 49.9995C42.5889 50.6817 43.1419 51.2347 43.8241 51.2347C44.5063 51.2347 45.0593 50.6816 45.0593 49.9995C45.0593 47.2752 47.2757 45.0588 50 45.0588C50.6821 45.0588 51.2352 44.5058 51.2352 43.8236Z" fill="white"/>
<path d="M74.3366 35.3372C74.0246 34.8201 73.3846 34.6046 72.8225 34.8279C69.8372 36.0159 66.5495 34.057 66.1077 30.9369C65.9781 30.0217 64.9227 29.5675 64.169 30.1034C62.9101 30.9986 61.4274 31.4718 59.8814 31.4718C55.4269 31.4718 51.9172 27.533 52.5437 23.0283C52.6439 22.3094 52.1044 21.6588 51.3793 21.6241C35.1101 20.8477 21.5909 33.7869 21.5909 49.9995C21.5909 65.7003 34.2969 78.4086 50 78.4086C65.7008 78.4086 78.4091 65.7027 78.4091 49.9995C78.4091 44.82 77.0009 39.75 74.3366 35.3372ZM50 75.9382C35.6974 75.9382 24.0613 64.3021 24.0613 49.9995C24.0613 35.6969 35.6974 24.0608 50 24.0608C50 29.5094 54.4328 33.9422 59.8814 33.9422C61.3639 33.9422 62.8026 33.616 64.1185 32.9887C65.4526 36.3024 69.0616 38.3125 72.7049 37.449C74.8234 41.2754 75.9387 45.5937 75.9387 49.9995C75.9387 64.3021 64.3026 75.9382 50 75.9382Z" fill="white"/>
<path d="M41.3538 33.9422C42.0359 33.9422 42.5889 33.3892 42.5889 32.707V30.2366C42.5889 29.5545 42.0359 29.0015 41.3538 29.0015C40.6716 29.0015 40.1186 29.5545 40.1186 30.2366V32.707C40.1186 33.3892 40.6716 33.9422 41.3538 33.9422Z" fill="white"/>
<path d="M35.1779 36.4125H37.6482C38.3304 36.4125 38.8834 35.8595 38.8834 35.1773C38.8834 34.4952 38.3304 33.9422 37.6482 33.9422H35.1779C34.4957 33.9422 33.9427 34.4952 33.9427 35.1773C33.9427 35.8595 34.4957 36.4125 35.1779 36.4125Z" fill="white"/>
<path d="M46.2945 32.707H48.7648C49.447 32.707 50 32.154 50 31.4718C50 30.7896 49.447 30.2366 48.7648 30.2366H46.2945C45.6123 30.2366 45.0593 30.7896 45.0593 31.4718C45.0593 32.154 45.6123 32.707 46.2945 32.707Z" fill="white"/>
<path d="M32.7075 42.5884C32.7075 43.2706 33.2605 43.8236 33.9427 43.8236C34.6249 43.8236 35.1779 43.2706 35.1779 42.5884V40.1181C35.1779 39.4359 34.6249 38.8829 33.9427 38.8829C33.2605 38.8829 32.7075 39.4359 32.7075 40.1181V42.5884Z" fill="white"/>
<path d="M27.7668 46.294H30.2372C30.9193 46.294 31.4723 45.741 31.4723 45.0588C31.4723 44.3766 30.9193 43.8236 30.2372 43.8236H27.7668C27.0846 43.8236 26.5316 44.3766 26.5316 45.0588C26.5316 45.741 27.0846 46.294 27.7668 46.294Z" fill="white"/>
<path d="M30.9296 48.9013C30.4473 48.419 29.6651 48.419 29.1828 48.9013C28.7005 49.3836 28.7005 50.1657 29.1828 50.6482L30.9296 52.395C31.4121 52.8773 32.194 52.8772 32.6764 52.395C33.1587 51.9127 33.1587 51.1305 32.6764 50.6481L30.9296 48.9013Z" fill="white"/>
<path d="M44.1859 66.4186C43.7034 65.9365 42.9214 65.9364 42.4391 66.4186C41.9568 66.9009 41.9566 67.683 42.4391 68.1655L44.1859 69.9124C44.6684 70.3946 45.4503 70.3947 45.9327 69.9124C46.415 69.4301 46.4151 68.6479 45.9327 68.1655L44.1859 66.4186Z" fill="white"/>
<path d="M63.9487 64.6717C63.4663 64.1895 62.6844 64.1895 62.2018 64.6717C61.7195 65.154 61.7195 65.9361 62.2018 66.4186L63.9487 68.1655C64.4313 68.6478 65.2131 68.6477 65.6957 68.1655C66.178 67.6832 66.178 66.901 65.6957 66.4186L63.9487 64.6717Z" fill="white"/>
<path d="M70.1246 56.0254C69.6422 55.5432 68.8603 55.5432 68.3777 56.0254C67.8954 56.5078 67.8954 57.2899 68.3777 57.7723L70.1246 59.5192C70.6072 60.0016 71.389 60.0015 71.8715 59.5192C72.3539 59.0369 72.3539 58.2548 71.8715 57.7723L70.1246 56.0254Z" fill="white"/>
<path d="M72.3832 45.932L70.6362 44.1852C70.1538 43.7029 69.3719 43.7029 68.8893 44.1852C68.407 44.6676 68.407 45.4497 68.8893 45.932L70.6362 47.6788C71.1187 48.1612 71.9006 48.1612 72.3832 47.6788C72.8655 47.1965 72.8655 46.4145 72.3832 45.932Z" fill="white"/>
<path d="M37.2816 61.1928C37.324 60.512 36.8064 59.9256 36.1256 59.8833L33.6601 59.7299C32.9817 59.686 32.3929 60.205 32.3505 60.8859C32.3082 61.5667 32.8257 62.153 33.5065 62.1954L35.9721 62.3488C36.644 62.3923 37.2389 61.8807 37.2816 61.1928Z" fill="white"/>
<path d="M58.7181 66.2127L56.2526 66.0593C55.5703 66.0159 54.9855 66.5344 54.9431 67.2153C54.9007 67.8961 55.4183 68.4824 56.0991 68.5248C57.8655 68.6341 58.5811 68.6807 58.6425 68.6807C59.2895 68.6807 59.8334 68.177 59.8741 67.5222C59.9165 66.8414 59.399 66.255 58.7181 66.2127Z" fill="white"/>
<path d="M66.134 59.8834L63.6685 59.73C62.9855 59.6854 62.4013 60.2051 62.3589 60.886C62.3166 61.5668 62.8342 62.1531 63.5149 62.1955C65.2814 62.3048 65.997 62.3514 66.0584 62.3514C66.7054 62.3514 67.2493 61.8477 67.29 61.1929C67.3324 60.512 66.8148 59.9256 66.134 59.8834Z" fill="white"/>
<path d="M66.0598 51.158C66.0174 51.8388 66.5351 52.4251 67.2158 52.4675C68.9822 52.5768 69.6979 52.6234 69.7593 52.6234C70.4063 52.6234 70.9501 52.1197 70.9909 51.4649C71.0332 50.7841 70.5156 50.1977 69.8349 50.1554L67.3693 50.0018C66.6878 49.9575 66.102 50.477 66.0598 51.158Z" fill="white"/>
<path d="M65.9806 42.4325L68.4461 42.5859C69.1281 42.6284 69.7133 42.1097 69.7557 41.4299C69.798 40.7491 69.2804 40.1628 68.5997 40.1204L66.1341 39.967C65.4522 39.9246 64.867 40.4422 64.8246 41.123C64.7822 41.8038 65.2998 42.3902 65.9806 42.4325Z" fill="white"/>
<path d="M30.0563 55.0151L28.3095 56.7618C27.8272 57.2442 27.8271 58.0263 28.3095 58.5088C28.792 58.991 29.574 58.9911 30.0563 58.5088L31.8031 56.762C32.2855 56.2796 32.2856 55.4975 31.8031 55.0151C31.3207 54.533 30.5387 54.5328 30.0563 55.0151Z" fill="white"/>
<path d="M50.8734 69.6124L49.1265 71.3593C48.6441 71.8416 48.6441 72.6238 49.1265 73.1062C49.6089 73.5886 50.3908 73.5884 50.8734 73.1062L52.6203 71.3593C53.1026 70.877 53.1026 70.0949 52.6203 69.6124C52.1378 69.1302 51.356 69.1302 50.8734 69.6124Z" fill="white"/>
<path d="M37.7065 65.4525L35.2973 65.9984C34.632 66.1492 34.2148 66.8106 34.3656 67.476C34.4956 68.0495 35.0049 68.4385 35.5692 68.4385C35.812 68.4385 35.7494 68.4185 38.2525 67.8619C38.9177 67.7111 39.335 67.0496 39.1842 66.3842C39.0334 65.719 38.3715 65.3022 37.7065 65.4525Z" fill="white"/>
<path d="M27.7668 53.705C28.449 53.705 29.002 53.152 29.002 52.4698C29.002 51.7877 28.449 51.2347 27.7668 51.2347C27.0846 51.2347 26.5316 51.7877 26.5316 52.4698C26.5316 53.152 27.0846 53.705 27.7668 53.705Z" fill="white"/>
<path d="M50 68.5272C50.6822 68.5272 51.2352 67.9742 51.2352 67.292C51.2352 66.6098 50.6822 66.0568 50 66.0568C49.3178 66.0568 48.7648 66.6098 48.7648 67.292C48.7648 67.9742 49.3178 68.5272 50 68.5272Z" fill="white"/>
<path d="M64.8221 57.4105C65.5043 57.4105 66.0573 56.8575 66.0573 56.1754C66.0573 55.4932 65.5043 54.9402 64.8221 54.9402C64.14 54.9402 63.587 55.4932 63.587 56.1754C63.587 56.8575 64.14 57.4105 64.8221 57.4105Z" fill="white"/>
<path d="M66.0573 47.5292C66.7395 47.5292 67.2925 46.9761 67.2925 46.294C67.2925 45.6118 66.7395 45.0588 66.0573 45.0588C65.3752 45.0588 64.8221 45.6118 64.8221 46.294C64.8221 46.9761 65.3752 47.5292 66.0573 47.5292Z" fill="white"/>
<path d="M31.4723 38.8829C32.1545 38.8829 32.7075 38.3299 32.7075 37.6477C32.7075 36.9655 32.1545 36.4125 31.4723 36.4125C30.7902 36.4125 30.2372 36.9655 30.2372 37.6477C30.2372 38.3299 30.7902 38.8829 31.4723 38.8829Z" fill="white"/>
</svg>
