<svg width="100" height="100" viewBox="0 0 100 100" fill="none" xmlns="http://www.w3.org/2000/svg">
<rect width="100" height="100" fill="#2787F5"/>
<path d="M57.5948 58.6136C58.4304 59.5039 58.3733 60.8912 57.4673 61.7123C53.3629 65.4319 48.8074 65.4319 44.735 63.2175C43.7363 62.6745 42.9918 62.1224 42.5392 61.7123C41.6332 60.8912 41.5761 59.5039 42.4117 58.6136C43.1951 57.779 44.4849 57.6775 45.3896 58.3446L45.5652 58.4883C45.7738 58.6774 46.2416 59.0242 46.896 59.3801C49.4358 60.7611 51.9334 60.7611 54.4413 58.4883C55.3474 57.6672 56.7592 57.7233 57.5948 58.6136ZM38.4111 41.542C41.0473 41.542 43.1843 43.679 43.1843 46.3152C43.1843 48.9514 41.0473 51.0885 38.4111 51.0885C35.7749 51.0885 33.6378 48.9514 33.6378 46.3152C33.6378 43.679 35.7749 41.542 38.4111 41.542ZM50 17C57.953 17 64.6652 19.8003 70.8092 25.5389C76.5433 30.8945 79.835 38.1239 80 45.7048L79.9746 74.0958C79.8798 77.5667 77.4002 80.3194 73.854 80.3194C73.0413 80.2933 72.0819 80.1553 70.7829 79.6327L68.1628 78.5246C66.3166 77.7509 65.1378 77.4228 63.9713 77.4228L63.7664 77.4305C63.1923 77.4768 62.6333 77.7535 61.0829 78.8322L58.6968 80.534C55.6699 82.6703 52.7649 83.7244 50.0033 83.8193C47.2201 83.8193 44.7778 82.8792 41.8164 80.8489L39.1766 78.9765L38.429 78.464C37.387 77.7671 36.8746 77.5189 36.4092 77.4475L36.0607 77.4228C34.8909 77.4228 33.7092 77.7511 31.8588 78.5251L29.2347 79.6329C28.1384 80.0732 27.5655 80.2365 26.9256 80.2926L26.16 80.3194C22.7426 80.3194 20.2769 77.6409 20.0295 74.2786L20 46.3019C20 38.5049 23.3187 31.0341 29.2143 25.5376C35.2116 19.9463 42.3389 17.1472 50 17ZM50.0251 21.0907L49.4454 21.1097C42.9215 21.3787 37.0126 23.8609 32.0043 28.5302C27.0735 33.1271 24.2553 39.2901 24.0983 45.7287L24.0914 46.2975L24.12 74.0778L24.1356 74.2189C24.3015 75.3925 25.0218 76.1314 25.9679 76.2192L26.1288 76.2257L26.6348 76.208L26.6782 76.201C26.8009 76.1767 26.973 76.1231 27.2835 76.0048L27.6435 75.8637L30.28 74.7506C32.4764 73.8319 34.0483 73.3918 35.7043 73.3373L36.0607 73.3314L36.3502 73.3417L36.6986 73.3664C36.8096 73.3743 36.9202 73.3867 37.0302 73.4035C38.3643 73.6084 39.3122 74.1 41.1819 75.3883L41.5436 75.6394L44.1299 77.4745C46.3914 79.0249 48.0004 79.6568 49.7019 79.7222L49.9214 79.7266L50.2327 79.7091C51.9695 79.569 53.8537 78.8584 55.8839 77.5033L56.3211 77.203L58.7461 75.4739C61.0616 73.8627 62.1757 73.3314 63.9713 73.3314C65.6411 73.3314 67.176 73.7105 69.2936 74.5658L69.7565 74.7564L72.3101 75.8371C73.0098 76.1186 73.475 76.2138 73.854 76.228C74.9695 76.228 75.7502 75.4817 75.8689 74.3156L75.8833 74.0921L75.9096 45.7938C75.7687 39.323 72.9501 33.1369 68.0166 28.5289C62.7412 23.6017 57.1878 21.2326 50.6016 21.0975L50.0251 21.0907ZM65.6625 45.4289C66.4855 46.1414 66.6068 47.4248 65.9334 48.2955C65.3022 49.1119 64.1966 49.2757 63.3828 48.706L63.2241 48.5822L63.0074 48.4049C61.7792 47.4587 60.5483 47.4954 59.2781 48.1552C59.13 48.2321 59.0013 48.3073 58.8955 48.3742L58.7156 48.495L58.4443 48.706C57.6305 49.2757 56.5249 49.1119 55.8937 48.2955C55.2203 47.4248 55.3416 46.1414 56.1646 45.4289C56.4672 45.167 56.9462 44.8277 57.5812 44.4979C60.1582 43.1594 63.0408 43.1594 65.6625 45.4289Z" fill="white"/>
</svg>
