<svg width="100" height="100" viewBox="0 0 100 100" fill="none" xmlns="http://www.w3.org/2000/svg">
<rect width="100" height="100" fill="#2787F5"/>
<path d="M50.5 23C65.6878 23 78 35.3122 78 50.5C78 65.6878 65.6878 78 50.5 78C35.3122 78 23 65.6878 23 50.5C23 35.3122 35.3122 23 50.5 23ZM50.5 65.3958C45.7197 65.3958 41.1501 66.7296 37.2157 69.1749C40.9625 71.8459 45.5478 73.4167 50.5 73.4167C55.4512 73.4167 60.0356 71.8465 63.7826 69.177C59.8488 66.7292 55.2797 65.3958 50.5 65.3958ZM50.5 27.5833C37.8435 27.5833 27.5833 37.8435 27.5833 50.5C27.5833 56.4943 29.8848 61.951 33.6522 66.0348C38.5504 62.6646 44.3835 60.8125 50.5 60.8125C56.6171 60.8125 62.4509 62.665 67.3499 66.0316C71.1161 61.949 73.4167 56.4931 73.4167 50.5C73.4167 37.8435 63.1565 27.5833 50.5 27.5833ZM50.5 35.6042C56.5137 35.6042 61.3854 40.4759 61.3854 46.4896C61.3854 52.5033 56.5137 57.375 50.5 57.375C44.4863 57.375 39.6146 52.5033 39.6146 46.4896C39.6146 40.4759 44.4863 35.6042 50.5 35.6042ZM50.5 40.1875C47.0176 40.1875 44.1979 43.0072 44.1979 46.4896C44.1979 49.972 47.0176 52.7917 50.5 52.7917C53.9824 52.7917 56.8021 49.972 56.8021 46.4896C56.8021 43.0072 53.9824 40.1875 50.5 40.1875Z" fill="white"/>
</svg>
