<svg width="100" height="100" viewBox="0 0 100 100" fill="none" xmlns="http://www.w3.org/2000/svg">
<rect width="100" height="100" fill="#2787F5"/>
<path d="M48.1193 26.4346L41.4432 41.0097C41.3622 41.1864 41.1606 41.326 40.9803 41.3487L26.957 43.1163C24.5128 43.4244 24.0005 45.0268 25.8513 46.6904L36.3215 56.1018C36.4605 56.2267 36.5322 56.4657 36.4911 56.6439L32.8357 72.484C32.279 74.8963 33.481 75.7139 35.5246 74.2925L49.7437 64.4019C49.8845 64.3039 50.1156 64.3032 50.2575 64.4019L64.4739 74.2925C66.5286 75.722 67.7206 74.9043 67.162 72.484L63.5066 56.6439C63.4624 56.4524 63.5415 56.223 63.6763 56.1018L74.1465 46.6904C75.9924 45.0312 75.5022 43.4266 73.0407 43.1163L59.0174 41.3487C58.8316 41.3253 58.6298 41.1742 58.5544 41.0097L51.87 26.4346C50.8353 24.1785 49.1544 24.1748 48.1193 26.4346ZM73.6336 38.4124C80.1347 39.2319 82.1741 45.8496 77.3159 50.2165L68.6804 57.9787L71.7818 71.4179C73.3166 78.0689 67.3777 82.0885 61.7662 78.1844L50.0003 69.9987L38.2319 78.1847C32.6332 82.0791 26.6825 78.0627 28.216 71.4179L31.3173 57.9787L22.6818 50.2165C17.8163 45.843 19.8836 39.2293 26.3641 38.4124L38.0953 36.9337L43.8088 24.4602C46.5337 18.5112 53.4544 18.516 56.1796 24.4582L61.901 36.9335L73.6336 38.4124Z" fill="white"/>
</svg>
