<svg width="100" height="100" viewBox="0 0 100 100" fill="none" xmlns="http://www.w3.org/2000/svg">
<rect width="100" height="100" fill="#2787F5"/>
<path d="M77 69C78.6569 69 80 70.3431 80 72C80 73.6569 78.6569 75 77 75H23C21.3431 75 20 73.6569 20 72C20 70.3431 21.3431 69 23 69H77ZM74 24C75.6569 24 77 25.3431 77 27V42C77 43.6569 75.6569 45 74 45C72.3431 45 71 43.6569 71 42V34.242L52.1213 53.1213C51.0399 54.2028 49.3382 54.286 48.1613 53.3709L47.8787 53.1213L41 46.2426L28.1213 59.1213C26.9497 60.2929 25.0503 60.2929 23.8787 59.1213C22.7071 57.9497 22.7071 56.0503 23.8787 54.8787L38.8787 39.8787C40.0503 38.7071 41.9497 38.7071 43.1213 39.8787L50 46.7574L66.752 30H59C57.4615 30 56.1935 28.8419 56.0202 27.3499L56 27C56 25.3431 57.3431 24 59 24H74Z" fill="white"/>
</svg>
