<svg width="88" height="88" viewBox="0 0 88 88" fill="none" xmlns="http://www.w3.org/2000/svg">
<rect width="88" height="88" fill="#2787F5"/>
<path fill-rule="evenodd" clip-rule="evenodd" d="M41.5 42.5C45.1467 42.5 48.6441 41.0513 51.2227 38.4727C53.8013 35.8941 55.25 32.3967 55.25 28.75C55.25 25.1033 53.8013 21.6059 51.2227 19.0273C48.6441 16.4487 45.1467 15 41.5 15C37.8533 15 34.3559 16.4487 31.7773 19.0273C29.1987 21.6059 27.75 25.1033 27.75 28.75C27.75 32.3967 29.1987 35.8941 31.7773 38.4727C34.3559 41.0513 37.8533 42.5 41.5 42.5ZM41.5 37.5C42.6491 37.5 43.7869 37.2737 44.8485 36.8339C45.9101 36.3942 46.8747 35.7497 47.6872 34.9372C48.4997 34.1247 49.1442 33.1601 49.5839 32.0985C50.0237 31.0369 50.25 29.8991 50.25 28.75C50.25 27.6009 50.0237 26.4631 49.5839 25.4015C49.1442 24.3399 48.4997 23.3753 47.6872 22.5628C46.8747 21.7503 45.9101 21.1058 44.8485 20.6661C43.7869 20.2263 42.6491 20 41.5 20C39.1794 20 36.9538 20.9219 35.3128 22.5628C33.6719 24.2038 32.75 26.4294 32.75 28.75C32.75 31.0706 33.6719 33.2962 35.3128 34.9372C36.9538 36.5781 39.1794 37.5 41.5 37.5ZM54 73.75C57.9782 73.75 61.7936 72.1697 64.6066 69.3566C67.4197 66.5436 69 62.7282 69 58.75C69 54.7718 67.4197 50.9564 64.6066 48.1434C61.7936 45.3304 57.9782 43.75 54 43.75C50.0218 43.75 46.2064 45.3304 43.3934 48.1434C40.5804 50.9564 39 54.7718 39 58.75C39 62.7282 40.5804 66.5436 43.3934 69.3566C46.2064 72.1697 50.0218 73.75 54 73.75ZM36.455 47.6725C36.5166 47.9951 36.5141 48.3266 36.4476 48.6482C36.381 48.9698 36.2518 49.2751 36.0672 49.5468C35.8827 49.8184 35.6464 50.051 35.3719 50.2313C35.0974 50.4116 34.7901 50.536 34.4675 50.5975C28.7875 51.68 26.2875 54 25.145 55.7225C24.6744 56.4216 24.3293 57.1974 24.125 58.015C24.0638 58.2664 24.022 58.5222 24 58.78V60C24 60.3315 24.1317 60.6495 24.3661 60.8839C24.6005 61.1183 24.9185 61.25 25.25 61.25H32.75C33.413 61.25 34.0489 61.5134 34.5178 61.9822C34.9866 62.4511 35.25 63.087 35.25 63.75C35.25 64.413 34.9866 65.0489 34.5178 65.5178C34.0489 65.9866 33.413 66.25 32.75 66.25H25.25C24.4292 66.25 23.6165 66.0883 22.8582 65.7742C22.0999 65.4602 21.4109 64.9998 20.8306 64.4194C20.2502 63.8391 19.7898 63.1501 19.4758 62.3918C19.1617 61.6335 19 60.8208 19 60V58.75H21.5C19 58.75 19 58.745 19 58.745V58.665C19.0034 58.4853 19.0159 58.3059 19.0375 58.1275C19.0725 57.8025 19.1375 57.3625 19.265 56.84C19.6064 55.4559 20.1868 54.142 20.98 52.9575C22.9625 49.97 26.7125 46.985 33.53 45.685C33.8526 45.6234 34.1841 45.6259 34.5057 45.6924C34.8273 45.759 35.1326 45.8882 35.4043 46.0728C35.6759 46.2573 35.9085 46.4936 36.0888 46.7681C36.2691 47.0426 36.3935 47.3499 36.455 47.6725ZM61.34 55.0275L57.1575 54.615L55.3175 50.27C54.7425 48.91 53.2625 48.91 52.6875 50.27L50.845 54.615L46.6625 55.0275C45.2025 55.17 44.7575 56.62 45.8875 57.5775L49.16 60.3625L47.945 64.8975C47.545 66.3875 48.7875 67.285 50.025 66.3925L54 63.5175L57.98 66.3925C59.22 67.29 60.46 66.3875 60.06 64.8975L58.845 60.3625L62.12 57.58C63.2425 56.6225 62.795 55.17 61.34 55.0275Z" fill="white"/>
</svg>
