<svg width="100" height="100" viewBox="0 0 100 100" fill="none" xmlns="http://www.w3.org/2000/svg">
<rect width="100" height="100" fill="#2787F5"/>
<path d="M50 53.1724C58.3748 53.1724 65.3883 56.5507 65.3883 63.8258C65.3883 67.4527 63.1925 69.7443 60.2095 69.7443H39.7905C36.6939 69.7443 34.6117 68.054 34.6117 64.4176C34.6117 56.6915 41.5341 53.1724 50 53.1724ZM32.9036 53.1735C33.3586 53.192 33.7891 53.3846 34.1061 53.7115C34.4231 54.0384 34.6024 54.4745 34.607 54.9299C34.6115 55.3852 34.441 55.8249 34.1306 56.158C33.8202 56.4912 33.3937 56.6923 32.9392 56.7199C28.3452 56.9898 25.142 59.072 25.142 62.6421C25.142 63.5298 25.5362 63.8258 26.3258 63.8258H29.285L29.4555 63.834C29.9094 63.878 30.3289 64.095 30.6272 64.4399C30.9254 64.7848 31.0796 65.2312 31.0577 65.6867C31.0358 66.1421 30.8395 66.5717 30.5095 66.8864C30.1794 67.201 29.741 67.3767 29.285 67.3769H26.3258L26.0938 67.3722C23.6316 67.2775 21.5909 65.6558 21.5909 62.6421C21.5909 56.733 26.4974 53.5393 32.732 53.1759L32.9036 53.1735ZM67.0964 53.1735L67.268 53.1759C73.5026 53.5393 78.4091 56.733 78.4091 62.6421C78.4091 65.6546 76.3684 67.2775 73.9063 67.3722L73.6742 67.3769H70.715C70.259 67.3767 69.8206 67.201 69.4905 66.8864C69.1605 66.5717 68.9642 66.1421 68.9423 65.6867C68.9204 65.2312 69.0746 64.7848 69.3728 64.4399C69.6711 64.095 70.0907 63.878 70.5445 63.834L70.715 63.8258H73.6742C74.4638 63.8258 74.858 63.5298 74.858 62.6421C74.858 59.072 71.656 56.9898 67.0597 56.7199C66.6051 56.6922 66.1787 56.4909 65.8683 56.1576C65.558 55.8244 65.3876 55.3846 65.3923 54.9293C65.397 54.474 65.5765 54.0378 65.8937 53.7111C66.2108 53.3843 66.6414 53.1919 67.0964 53.1735ZM50 56.7235C43.241 56.7235 38.1629 59.304 38.1629 64.4176C38.1629 65.7801 38.4529 66.134 39.4768 66.1861L39.7905 66.1932H60.2095C61.1967 66.1932 61.8371 65.5256 61.8371 63.8258C61.8371 59.2188 56.656 56.7235 50 56.7235ZM35.7955 33.0492C36.0464 33.0492 36.2962 33.0611 36.5436 33.0824C37.0119 33.1253 37.4441 33.3523 37.7453 33.7135C38.0465 34.0747 38.1921 34.5407 38.1501 35.0092C38.1081 35.4776 37.8819 35.9103 37.5212 36.2121C37.1606 36.514 36.6949 36.6605 36.2263 36.6193C35.5354 36.5573 34.8393 36.6478 34.1873 36.8845C33.5352 37.1212 32.9431 37.4983 32.4529 37.9891C31.9627 38.4799 31.5863 39.0724 31.3503 39.7248C31.1144 40.3771 31.0247 41.0733 31.0875 41.7641C31.1503 42.455 31.3642 43.1236 31.714 43.7226C32.0638 44.3217 32.5409 44.8366 33.1116 45.2308C33.6824 45.6251 34.3328 45.8892 35.0169 46.0043C35.7009 46.1195 36.4019 46.0829 37.0703 45.8973L37.2573 45.8523C37.7064 45.7699 38.1698 45.8637 38.5515 46.1141C38.9332 46.3645 39.2038 46.7523 39.3071 47.197C39.4104 47.6417 39.3384 48.109 39.1062 48.5021C38.8739 48.8951 38.4992 49.1835 38.0599 49.3075L37.6432 49.4141L37.2585 49.4922C36.1269 49.6943 34.9657 49.6587 33.8486 49.3877C32.7315 49.1167 31.683 48.6162 30.7698 47.9181C29.8566 47.22 29.0986 46.3396 28.544 45.3327C27.9895 44.3258 27.6505 43.2146 27.5486 42.0696C27.4467 40.9246 27.5842 39.771 27.9523 38.682C28.3203 37.5931 28.911 36.5926 29.6866 35.7442C30.4622 34.8959 31.4059 34.2181 32.4575 33.7542C33.5092 33.2902 34.646 33.0502 35.7955 33.0492ZM64.2093 33.0492C65.3593 33.0492 66.4968 33.2886 67.5493 33.7522C68.6018 34.2157 69.5462 34.8933 70.3226 35.7418C71.0989 36.5903 71.6901 37.5911 72.0586 38.6805C72.427 39.7699 72.5647 40.9241 72.4628 42.0697C72.3608 43.2152 72.0215 44.3269 71.4665 45.3342C70.9115 46.3414 70.1528 47.2221 69.2389 47.9202C68.3249 48.6183 67.2757 49.1184 66.1579 49.3889C65.04 49.6593 63.8782 49.6941 62.7462 49.491L62.3615 49.4141L61.9448 49.3075C61.5061 49.1831 61.1321 48.8947 60.9003 48.502C60.6684 48.1093 60.5966 47.6424 60.6996 47.1982C60.8027 46.7539 61.0727 46.3664 61.4537 46.1158C61.8347 45.8652 62.2975 45.7709 62.7462 45.8523L62.9344 45.8973C63.3494 46.0131 63.7784 46.0713 64.2093 46.0701C64.8486 46.069 65.481 45.9385 66.0685 45.6864C66.656 45.4343 67.1863 45.0659 67.6276 44.6033C68.0688 44.1407 68.4118 43.5936 68.6359 42.9948C68.86 42.3961 68.9605 41.7582 68.9313 41.1196C68.9022 40.481 68.7441 39.8549 68.4665 39.279C68.1888 38.7032 67.7975 38.1895 67.316 37.769C66.8345 37.3485 66.2728 37.0298 65.6648 36.8322C65.0568 36.6346 64.4151 36.5622 63.7784 36.6193C63.5462 36.6402 63.3121 36.6152 63.0895 36.5456C62.867 36.4761 62.6603 36.3634 62.4813 36.2139C62.3023 36.0645 62.1545 35.8813 62.0463 35.6747C61.9381 35.4682 61.8716 35.2423 61.8507 35.0101C61.8298 34.7778 61.8549 34.5437 61.9244 34.3212C61.994 34.0986 62.1067 33.8919 62.2561 33.7129C62.4056 33.5339 62.5888 33.3861 62.7953 33.2779C63.0019 33.1697 63.2278 33.1033 63.46 33.0824C63.7086 33.0599 63.9572 33.0492 64.2093 33.0492ZM50 30.6818C52.5115 30.6818 54.9202 31.6795 56.6961 33.4554C58.472 35.2313 59.4697 37.64 59.4697 40.1515C59.4697 42.663 58.472 45.0717 56.6961 46.8476C54.9202 48.6235 52.5115 49.6212 50 49.6212C47.4885 49.6212 45.0798 48.6235 43.3039 46.8476C41.528 45.0717 40.5303 42.663 40.5303 40.1515C40.5303 37.64 41.528 35.2313 43.3039 33.4554C45.0798 31.6795 47.4885 30.6818 50 30.6818ZM50 34.233C48.4303 34.233 46.9249 34.8565 45.8149 35.9665C44.705 37.0764 44.0814 38.5818 44.0814 40.1515C44.0814 41.7212 44.705 43.2266 45.8149 44.3366C46.9249 45.4465 48.4303 46.0701 50 46.0701C51.5697 46.0701 53.0751 45.4465 54.1851 44.3366C55.295 43.2266 55.9186 41.7212 55.9186 40.1515C55.9186 38.5818 55.295 37.0764 54.1851 35.9665C53.0751 34.8565 51.5697 34.233 50 34.233Z" fill="white"/>
</svg>
