<svg width="100" height="100" viewBox="0 0 100 100" fill="none" xmlns="http://www.w3.org/2000/svg">
<rect width="100" height="100" fill="#2787F5"/>
<path d="M66.2595 36.6364C69.2988 36.6364 70.4009 36.9528 71.512 37.547C72.6231 38.1413 73.4951 39.0133 74.0893 40.1244L74.2991 40.5444C74.7577 41.5413 75 42.7175 75 45.3769V48C75 49.2552 73.9825 50.2727 72.7273 50.2727C71.4721 50.2727 70.4545 49.2552 70.4545 48V45.3769C70.4545 43.2921 70.3561 42.7822 70.0811 42.268C69.9105 41.949 69.6873 41.7259 69.3683 41.5553C68.9276 41.3196 68.49 41.2136 67.0611 41.1881L66.2595 41.1818H33.7405L32.9389 41.1881C31.51 41.2136 31.0724 41.3196 30.6317 41.5553C30.3127 41.7259 30.0895 41.949 29.9189 42.268C29.6636 42.7455 29.5604 43.2193 29.547 44.9537L29.5455 61.5212C29.5455 65.9151 29.8401 67.4406 30.6778 69.0071C31.3436 70.252 32.2934 71.2018 33.5383 71.8676C35.1048 72.7054 36.6304 73 41.0243 73H45.4545C46.7097 73 47.7273 74.0175 47.7273 75.2727C47.7273 76.5279 46.7097 77.5455 45.4545 77.5455H41.0243L39.7032 77.5334C35.1154 77.4452 33.262 76.8745 31.3947 75.8759C29.3577 74.7865 27.759 73.1878 26.6696 71.1507C25.6256 69.1986 25.0492 67.2616 25.003 62.1994L25 45.3769C25 42.3376 25.3165 41.2355 25.9107 40.1244C26.5049 39.0133 27.3769 38.1413 28.488 37.547L28.9081 37.3373C29.8337 36.9114 30.914 36.6721 33.1929 36.6401L66.2595 36.6364ZM61.3636 50.2727C68.8948 50.2727 75 56.3779 75 63.9091C75 71.4402 68.8948 77.5455 61.3636 77.5455C53.8325 77.5455 47.7273 71.4402 47.7273 63.9091C47.7273 56.3779 53.8325 50.2727 61.3636 50.2727ZM61.3636 54.8182C60.1981 54.8182 59.2375 55.6955 59.1062 56.8259L59.0909 57.0909V61.6364H54.5455C53.2903 61.6364 52.2727 62.6539 52.2727 63.9091C52.2727 65.0746 53.1501 66.0352 54.2804 66.1665L54.5455 66.1818H59.0909V70.7273C59.0909 71.9825 60.1084 73 61.3636 73C62.5292 73 63.4898 72.1226 63.6211 70.9923L63.6364 70.7273V66.1818H68.1818C69.437 66.1818 70.4545 65.1643 70.4545 63.9091C70.4545 62.7436 69.5772 61.7829 68.4469 61.6517L68.1818 61.6364H63.6364V57.0909C63.6364 55.8357 62.6188 54.8182 61.3636 54.8182ZM38.6364 45.7273C39.8916 45.7273 40.9091 46.7448 40.9091 48C40.9091 49.2552 39.8916 50.2727 38.6364 50.2727C37.3812 50.2727 36.3636 49.2552 36.3636 48C36.3636 46.7448 37.3812 45.7273 38.6364 45.7273ZM50 23C57.5312 23 63.6364 29.1052 63.6364 36.6364H59.0909C59.0909 31.6156 55.0208 27.5455 50 27.5455C44.9792 27.5455 40.9091 31.6156 40.9091 36.6364H36.3636C36.3636 29.1052 42.4688 23 50 23Z" fill="white"/>
</svg>
