<svg width="100" height="100" viewBox="0 0 100 100" fill="none" xmlns="http://www.w3.org/2000/svg">
<rect width="100" height="100" fill="#2787F5"/>
<path d="M68.3115 50.9358C73.8971 50.9358 78.4091 55.5348 78.4091 61.1872C78.4091 66.7794 76.2152 69.5789 67.2433 76.6898L63.1056 79.9692C62.5149 80.4375 61.7832 80.6923 61.0294 80.6923C60.2756 80.6923 59.5439 80.4375 58.9532 79.9692L54.3409 76.3128C45.766 69.4773 43.6497 66.6805 43.6497 61.1872C43.6497 55.5334 48.1618 50.9358 53.7473 50.9358C56.361 50.9358 58.7072 52.016 60.7487 54.0775L61.0294 54.3676L61.3102 54.0775C63.254 52.1136 65.4746 51.0414 67.9412 50.9425L68.3115 50.9358ZM68.3115 54.9465C66.2928 54.9465 64.4465 56.1257 62.6885 58.7152L61.0294 61.1604L59.3703 58.7139C57.6123 56.1257 55.766 54.9465 53.7473 54.9465C50.3944 54.9465 47.6604 57.7326 47.6604 61.1872C47.6604 65.1337 49.2473 67.1578 57.3075 73.5468L61.0294 76.496L65.1845 73.2019C72.7259 67.1979 74.3396 65.139 74.3957 61.4011L74.3984 61.1872C74.3984 57.7326 71.6644 54.9465 68.3115 54.9465ZM46.992 18.1818C54.3757 18.1818 60.361 24.1671 60.361 31.5495L64.389 31.5508C66.5949 31.5508 67.7433 31.7727 68.9398 32.4131C70.0427 32.9988 70.945 33.9012 71.5308 35.004C72.1324 36.127 72.3636 37.2059 72.3904 39.1537L72.3931 39.5548V43.0361C72.3928 43.5511 72.1944 44.0463 71.839 44.419C71.4836 44.7917 70.9985 45.0134 70.4841 45.0381C69.9697 45.0629 69.4655 44.8888 69.0759 44.5519C68.6864 44.215 68.4414 43.7412 68.3917 43.2286L68.3824 43.0361V39.5548L68.377 38.9693C68.3516 37.8155 68.2433 37.361 67.9947 36.8957C67.7827 36.4913 67.4525 36.1612 67.0481 35.9492L66.8316 35.8449C66.3904 35.6537 65.8636 35.5735 64.6952 35.5628L29.5949 35.5615C27.996 35.5615 27.4719 35.6631 26.9345 35.9492C26.5306 36.1614 26.2009 36.4915 25.9893 36.8957L25.885 37.1123C25.6939 37.5535 25.6136 38.0802 25.6029 39.2487L25.6016 59.0949C25.6016 63.4118 25.9332 65.1297 26.8824 66.9037C27.6642 68.3846 28.8747 69.5951 30.3556 70.377L30.75 70.5775C32.3329 71.3409 34.0254 71.6337 37.6952 71.6564L38.1631 71.6578H40.115C40.63 71.658 41.1251 71.8564 41.4978 72.2118C41.8706 72.5672 42.0923 73.0523 42.117 73.5667C42.1418 74.0811 41.9677 74.5853 41.6308 74.9749C41.2939 75.3644 40.8201 75.6094 40.3075 75.6591L40.1136 75.6684H38.1644L37.1484 75.6618C32.9078 75.5989 30.7246 75.123 28.4639 73.9131C26.2845 72.7575 24.5018 70.9749 23.3463 68.7955C22.0896 66.4479 21.6243 64.1832 21.5922 59.6136L21.5909 39.5548C21.5909 37.3489 21.8128 36.2005 22.4532 35.004C23.0389 33.9012 23.9413 32.9988 25.0441 32.4131C26.1671 31.8115 27.246 31.5802 29.1939 31.5535L56.3503 31.5495L56.3449 31.2286C56.262 28.7749 55.2181 26.4521 53.4384 24.7609C51.6586 23.0698 49.2856 22.1457 46.8309 22.188C44.3761 22.2302 42.0363 23.2355 40.3159 24.9869C38.5954 26.7383 37.6321 29.0957 37.6337 31.5508H33.623C33.623 24.1671 39.6083 18.1818 46.992 18.1818ZM35.6283 39.5722C35.8917 39.5722 36.1525 39.6241 36.3958 39.7248C36.6391 39.8256 36.8601 39.9733 37.0463 40.1595C37.2326 40.3458 37.3803 40.5668 37.481 40.8101C37.5818 41.0534 37.6337 41.3142 37.6337 41.5775C37.6337 41.8409 37.5818 42.1017 37.481 42.345C37.3803 42.5883 37.2326 42.8093 37.0463 42.9955C36.8601 43.1818 36.6391 43.3295 36.3958 43.4302C36.1525 43.531 35.8917 43.5829 35.6283 43.5829C35.0965 43.5829 34.5864 43.3716 34.2104 42.9955C33.8343 42.6195 33.623 42.1094 33.623 41.5775C33.623 41.0457 33.8343 40.5356 34.2104 40.1595C34.5864 39.7835 35.0965 39.5722 35.6283 39.5722Z" fill="white"/>
</svg>
