<svg width="100" height="100" viewBox="0 0 100 100" fill="none" xmlns="http://www.w3.org/2000/svg">
<rect width="100" height="100" fill="#2787F5"/>
<path d="M79.2192 20.7808C80.2603 21.822 80.2603 23.5099 79.2192 24.551L73.3756 30.3953C76.8042 35.5709 76.2386 42.6124 71.6787 47.1723L70.6817 48.1709C71.61 59.7867 67.5052 70.1969 58.483 79.2191C57.8065 79.8956 56.8194 80.1577 55.8964 79.906C48.4957 77.8876 41.195 73.2417 33.9766 66.0234C26.7583 58.805 22.1124 51.5043 20.094 44.1036C19.8423 43.1806 20.1044 42.1935 20.7809 41.517C29.8022 32.4957 40.2112 28.3908 51.8256 29.318L52.8277 28.3213C57.3869 23.7621 64.4271 23.1959 69.6024 26.6229L75.449 20.7808C76.4901 19.7397 78.178 19.7397 79.2192 20.7808ZM65.3495 48.3867L51.6137 34.6477L50.6241 34.5795C41.3929 34.0459 33.1285 37.2182 25.6861 44.1884C27.6447 50.1306 31.6505 56.1568 37.7468 62.2532C43.8432 68.3495 49.8694 72.3553 55.8116 74.3139C63.0298 66.6066 66.1751 58.0179 65.3495 48.3867ZM67.9085 32.0915C64.7852 28.9681 59.7212 28.9681 56.5979 32.0915L67.9085 43.4021C71.0319 40.2788 71.0319 35.2148 67.9085 32.0915Z" fill="white"/>
</svg>
